<svg xmlns="http://www.w3.org/2000/svg" viewBox="0 0 64 64" fill="none">
  <rect width="64" height="64" rx="16" fill="#6B8E23" />
  <path d="M40.8 21.6c-1.7-4.2-6-6.8-11.4-6.8-5.2 0-9.4 2.3-11.8 6.2-1.7 2.8-2.2 7-.2 9.8 1.7 2.4 4.8 3.6 7.7 4.6 3.2 1.1 6.1 2.1 6.6 4.4.4 1.8-.6 3.5-2.4 4.4-2 .9-4.5.9-6.7.1-1.7-.6-3.1-1.7-3.6-3.3l-7.2 2.1c1.1 3.9 4.1 6.9 8.3 8.3 3.5 1.2 7.6 1.2 11 .1 4.8-1.5 8.3-5.2 9.3-9.6.8-4-.9-7.7-4.8-9.9-2.1-1.2-4.7-2.1-7.2-2.9-2.4-.8-4.6-1.6-5.2-3-.6-1.1-.5-2.7.3-3.9 1.1-1.5 3.1-2.3 5.4-2.2 2.9.1 5.1 1.4 5.9 3.4l6.6-1.3Z" fill="#FFF7E6" />
</svg>
